<svg width="130" height="130" viewBox="0 0 130 130" fill="none" xmlns="http://www.w3.org/2000/svg">
<rect width="130" height="130" rx="20" fill="#D46026"/>
<path d="M46.9233 34.75L46.9409 34.9805L47.2671 39.2109L47.2876 39.4795H47.0181C44.5728 39.4795 42.7978 40.0161 41.646 41.043L41.645 41.0439C40.5193 42.0435 39.7603 43.4242 39.3784 45.2041C39.0351 47.0063 38.8628 49.0491 38.8628 51.334V78.666C38.8628 80.9068 39.035 82.9497 39.3784 84.7959L39.4546 85.125C39.8568 86.7469 40.5897 88.019 41.645 88.9561L41.646 88.957C42.7978 89.9839 44.5728 90.5205 47.0181 90.5205H47.2876L47.2671 90.7891L46.9409 95.0195L46.9233 95.25H46.6919C43.2821 95.25 40.5835 94.7052 38.6196 93.5908V93.5898C36.691 92.5141 35.3091 90.7695 34.4673 88.3799C33.6308 86.0052 33.1289 82.8978 32.9546 79.0674C32.7806 75.2013 32.6938 70.512 32.6938 65C32.6938 59.4448 32.7806 54.7554 32.9546 50.9326C33.1289 47.1022 33.6308 43.9948 34.4673 41.6201C35.3094 39.2297 36.692 37.4838 38.6216 36.4082C40.5853 35.2946 43.2832 34.75 46.6919 34.75H46.9233ZM83.1958 34.75C86.6014 34.75 89.2774 35.2938 91.1987 36.4072C93.172 37.4822 94.5776 39.2279 95.4204 41.6201C96.2569 43.9948 96.7588 47.1022 96.9331 50.9326C97.1071 54.7554 97.1938 59.4448 97.1938 65C97.1938 70.512 97.1071 75.2013 96.9331 79.0674C96.7588 82.8978 96.2569 86.0052 95.4204 88.3799C94.5777 90.772 93.1728 92.5178 91.1997 93.5928L91.1987 93.5918C89.2774 94.7054 86.6017 95.25 83.1958 95.25H82.9644L82.9468 95.0195L82.6206 90.7891L82.6001 90.5205H82.8696C85.3609 90.5205 87.1325 89.983 88.2388 88.96L88.2427 88.9561C89.3668 87.958 90.1037 86.5795 90.4429 84.8018L90.4438 84.7969L90.5796 84.0957C90.876 82.4373 91.0249 80.6277 91.0249 78.666V51.334C91.0249 49.0484 90.8304 47.0055 90.4438 45.2041L90.4429 45.1982C90.1037 43.4205 89.3668 42.042 88.2427 41.0439L88.2388 41.04C87.1325 40.017 85.3609 39.4795 82.8696 39.4795H82.6001L82.6206 39.2109L82.9468 34.9805L82.9644 34.75H83.1958ZM77.5562 41.9082V46.9639H67.978V87.9619H61.8745V46.9639H52.2964V41.9082H77.5562Z" fill="white" stroke="white" stroke-width="0.5"/>
</svg>
